<?xml version="1.0" standalone="no"?>
<!DOCTYPE svg PUBLIC "-//W3C//DTD SVG 20010904//EN"
 "http://www.w3.org/TR/2001/REC-SVG-20010904/DTD/svg10.dtd">
<svg version="1.0" xmlns="http://www.w3.org/2000/svg"
 width="511.000000pt" height="437.000000pt" viewBox="0 0 511.000000 437.000000"
 preserveAspectRatio="xMidYMid meet">

<g transform="translate(0.000000,437.000000) scale(0.100000,-0.100000)"
fill="#000000" stroke="none">
<path d="M3790 4093 c-110 -18 -262 -64 -345 -106 -58 -29 -195 -113 -205
-126 -3 -4 -31 -28 -63 -55 -174 -147 -356 -438 -446 -711 -59 -183 -85 -302
-111 -517 -66 -548 30 -1251 225 -1639 79 -159 135 -240 230 -334 208 -207
394 -294 629 -296 179 -2 333 69 487 222 26 26 55 59 64 73 30 45 26 49 190
-177 l49 -67 201 2 200 3 3 988 2 987 -535 0 -535 0 0 -328 0 -328 123 1 c67
0 130 -1 140 -3 15 -4 17 -21 17 -176 -1 -272 -40 -404 -135 -451 -83 -40
-179 -18 -266 62 -49 46 -69 75 -109 157 -106 223 -141 423 -146 836 -4 416
33 631 152 875 85 176 192 278 348 333 62 22 87 26 201 26 115 0 139 -4 210
-28 98 -33 205 -90 312 -167 45 -33 84 -59 87 -59 3 0 6 177 6 394 l0 395 -27
21 c-39 31 -194 104 -283 134 -68 23 -109 32 -240 56 -45 9 -382 11 -430 3z"/>
<path d="M180 2205 l0 -1845 1040 0 1040 0 1 30 c0 17 1 167 1 335 0 168 -1
323 -1 345 l-1 40 -612 2 -613 3 -3 398 -2 397 575 0 575 0 0 355 0 355 -575
0 -575 0 2 343 3 342 614 5 614 5 -1 315 c0 173 -1 339 -1 367 l-1 53 -1040 0
-1040 -1 0 -1844z"/>
</g>
</svg>
